<svg width="21" height="20" viewBox="0 0 21 20" fill="none" xmlns="http://www.w3.org/2000/svg">
<path d="M3 2.70834C2.65482 2.70834 2.375 2.98816 2.375 3.33334C2.375 3.67851 2.65482 3.95834 3 3.95834C3.68088 3.95834 4.2704 4.43123 4.4181 5.0959L4.77638 6.70816C4.77899 6.74731 4.7853 6.78645 4.79542 6.82507L4.84117 6.99969L4.88988 7.21892C4.89946 7.26201 4.91327 7.30307 4.93079 7.34175L6.32676 12.6699C6.7829 14.4109 8.3561 15.625 10.1559 15.625H14.4588C16.645 15.625 18.4172 13.8528 18.4172 11.6667V9.4089C18.4172 8.939 18.3494 8.37206 18.0306 7.87185C17.3132 6.74634 16.0617 6.04167 14.6928 6.04167H5.90876L5.63833 4.82473C5.36354 3.58815 4.26675 2.70834 3 2.70834Z" fill="#222222"/>
<path d="M15.5 17.5C15.5 17.9602 15.1269 18.3333 14.6667 18.3333C14.2064 18.3333 13.8333 17.9602 13.8333 17.5C13.8333 17.0398 14.2064 16.6667 14.6667 16.6667C15.1269 16.6667 15.5 17.0398 15.5 17.5Z" fill="#222222"/>
<path d="M8 18.3333C8.46024 18.3333 8.83333 17.9602 8.83333 17.5C8.83333 17.0398 8.46024 16.6667 8 16.6667C7.53976 16.6667 7.16667 17.0398 7.16667 17.5C7.16667 17.9602 7.53976 18.3333 8 18.3333Z" fill="#222222"/>
</svg>
