<svg width="21" height="20" viewBox="0 0 21 20" fill="none" xmlns="http://www.w3.org/2000/svg">
<path d="M10.2041 17.4255L10.1987 17.4226L10.1798 17.4124C10.1637 17.4037 10.1408 17.3911 10.1113 17.3746C10.0524 17.3418 9.9677 17.2937 9.8608 17.2308C9.64708 17.105 9.34431 16.9199 8.98212 16.6791C8.25895 16.1984 7.29268 15.4917 6.32383 14.5886C4.40651 12.8013 2.375 10.1459 2.375 6.875C2.375 4.43495 4.428 2.5 6.90625 2.5C8.36365 2.5 9.6686 3.16591 10.5 4.20966C11.3314 3.16591 12.6363 2.5 14.0938 2.5C16.572 2.5 18.625 4.43495 18.625 6.875C18.625 10.1459 16.5935 12.8013 14.6762 14.5886C13.7073 15.4917 12.741 16.1984 12.0179 16.6791C11.6557 16.9199 11.3529 17.105 11.1392 17.2308C11.0323 17.2937 10.9476 17.3418 10.8887 17.3746C10.8592 17.3911 10.8363 17.4037 10.8202 17.4124L10.8013 17.4226L10.7959 17.4255L10.7936 17.4268C10.6103 17.5241 10.3897 17.5241 10.2064 17.4268L10.2041 17.4255Z" fill="#720076"/>
</svg>
