<svg width="24" height="24" viewBox="0 0 24 24" fill="none" xmlns="http://www.w3.org/2000/svg">
<path d="M3.66531 8.66804L9.50212 3.99859C10.963 2.82989 13.0388 2.8299 14.4997 3.9986L20.3365 8.66804C21.3768 9.50033 21.9345 10.796 21.8239 12.1237L21.1537 20.1657C21.0673 21.2022 20.2008 21.9996 19.1606 21.9996H15.2757C13.9106 21.9996 12.9467 20.6622 13.3784 19.3671L13.6313 18.6084C14.0591 17.325 13.1038 15.9996 11.7509 15.9996C10.398 15.9996 9.4427 17.325 9.87052 18.6085L10.1234 19.3671C10.5551 20.6622 9.59116 21.9996 8.22605 21.9996H4.84116C3.80099 21.9996 2.93445 21.2022 2.84807 20.1657L2.17791 12.1237C2.06726 10.796 2.62495 9.50033 3.66531 8.66804Z" fill="#222222"/>
</svg>
