<svg width="24" height="24" viewBox="0 0 24 24" fill="none" xmlns="http://www.w3.org/2000/svg">
<path d="M11.4482 4.29593C11.7051 3.90136 12.2949 3.90136 12.5518 4.29593L14.8781 7.86913C15.1031 8.21471 15.4503 8.46271 15.8495 8.56615L20.0131 9.64472C20.4781 9.76517 20.6473 10.309 20.3536 10.6632L17.6278 13.9502C17.3644 14.2678 17.2307 14.6726 17.2546 15.0844L17.5015 19.3242C17.5279 19.778 17.0636 20.129 16.6093 19.9544L12.5983 18.4126C12.2134 18.2646 11.7866 18.2646 11.4017 18.4126L7.39073 19.9544C6.93644 20.129 6.4721 19.778 6.49851 19.3242L6.74535 15.0844C6.76933 14.6726 6.63557 14.2678 6.37219 13.9502L3.64643 10.6632C3.35267 10.309 3.52194 9.76517 3.98692 9.64472L8.15046 8.56615C8.54973 8.46271 8.89686 8.21471 9.12185 7.86913L11.4482 4.29593Z" fill="#FEFEFE" stroke="#720076"/>
</svg>
